<svg width="472" height="223" viewBox="0 0 472 223" fill="none" xmlns="http://www.w3.org/2000/svg">
<path d="M45.552 49.8574C45.552 48.9004 45.9426 48.4219 46.7238 48.4219C47.5246 48.4219 47.925 48.9004 47.925 49.8574C47.925 50.8145 47.5246 51.293 46.7238 51.293C45.9426 51.293 45.552 50.8145 45.552 49.8574ZM59.3004 49.8574C59.3004 48.9004 59.691 48.4219 60.4723 48.4219C61.273 48.4219 61.6734 48.9004 61.6734 49.8574C61.6734 50.8145 61.273 51.293 60.4723 51.293C59.691 51.293 59.3004 50.8145 59.3004 49.8574ZM73.0488 49.8574C73.0488 48.9004 73.4395 48.4219 74.2207 48.4219C75.0215 48.4219 75.4219 48.9004 75.4219 49.8574C75.4219 50.8145 75.0215 51.293 74.2207 51.293C73.4395 51.293 73.0488 50.8145 73.0488 49.8574ZM86.7973 49.8574C86.7973 48.9004 87.1879 48.4219 87.9691 48.4219C88.7699 48.4219 89.1703 48.9004 89.1703 49.8574C89.1703 50.8145 88.7699 51.293 87.9691 51.293C87.1879 51.293 86.7973 50.8145 86.7973 49.8574ZM100.546 49.8574C100.546 48.9004 100.936 48.4219 101.718 48.4219C102.518 48.4219 102.919 48.9004 102.919 49.8574C102.919 50.8145 102.518 51.293 101.718 51.293C100.936 51.293 100.546 50.8145 100.546 49.8574ZM114.294 49.8574C114.294 48.9004 114.685 48.4219 115.466 48.4219C116.267 48.4219 116.667 48.9004 116.667 49.8574C116.667 50.8145 116.267 51.293 115.466 51.293C114.685 51.293 114.294 50.8145 114.294 49.8574ZM128.043 49.8574C128.043 48.9004 128.433 48.4219 129.214 48.4219C130.015 48.4219 130.416 48.9004 130.416 49.8574C130.416 50.8145 130.015 51.293 129.214 51.293C128.433 51.293 128.043 50.8145 128.043 49.8574Z" fill="#2926C3"/>
<path d="M45.552 61.8574C45.552 60.9004 45.9426 60.4219 46.7238 60.4219C47.5246 60.4219 47.925 60.9004 47.925 61.8574C47.925 62.8145 47.5246 63.293 46.7238 63.293C45.9426 63.293 45.552 62.8145 45.552 61.8574ZM59.3004 61.8574C59.3004 60.9004 59.691 60.4219 60.4723 60.4219C61.273 60.4219 61.6734 60.9004 61.6734 61.8574C61.6734 62.8145 61.273 63.293 60.4723 63.293C59.691 63.293 59.3004 62.8145 59.3004 61.8574ZM73.0488 61.8574C73.0488 60.9004 73.4395 60.4219 74.2207 60.4219C75.0215 60.4219 75.4219 60.9004 75.4219 61.8574C75.4219 62.8145 75.0215 63.293 74.2207 63.293C73.4395 63.293 73.0488 62.8145 73.0488 61.8574ZM86.7973 61.8574C86.7973 60.9004 87.1879 60.4219 87.9691 60.4219C88.7699 60.4219 89.1703 60.9004 89.1703 61.8574C89.1703 62.8145 88.7699 63.293 87.9691 63.293C87.1879 63.293 86.7973 62.8145 86.7973 61.8574ZM100.546 61.8574C100.546 60.9004 100.936 60.4219 101.718 60.4219C102.518 60.4219 102.919 60.9004 102.919 61.8574C102.919 62.8145 102.518 63.293 101.718 63.293C100.936 63.293 100.546 62.8145 100.546 61.8574ZM114.294 61.8574C114.294 60.9004 114.685 60.4219 115.466 60.4219C116.267 60.4219 116.667 60.9004 116.667 61.8574C116.667 62.8145 116.267 63.293 115.466 63.293C114.685 63.293 114.294 62.8145 114.294 61.8574ZM128.043 61.8574C128.043 60.9004 128.433 60.4219 129.214 60.4219C130.015 60.4219 130.416 60.9004 130.416 61.8574C130.416 62.8145 130.015 63.293 129.214 63.293C128.433 63.293 128.043 62.8145 128.043 61.8574Z" fill="#2926C3"/>
<path d="M45.552 73.8574C45.552 72.9004 45.9426 72.4219 46.7238 72.4219C47.5246 72.4219 47.925 72.9004 47.925 73.8574C47.925 74.8145 47.5246 75.293 46.7238 75.293C45.9426 75.293 45.552 74.8145 45.552 73.8574ZM59.3004 73.8574C59.3004 72.9004 59.691 72.4219 60.4723 72.4219C61.273 72.4219 61.6734 72.9004 61.6734 73.8574C61.6734 74.8145 61.273 75.293 60.4723 75.293C59.691 75.293 59.3004 74.8145 59.3004 73.8574ZM73.0488 73.8574C73.0488 72.9004 73.4395 72.4219 74.2207 72.4219C75.0215 72.4219 75.4219 72.9004 75.4219 73.8574C75.4219 74.8145 75.0215 75.293 74.2207 75.293C73.4395 75.293 73.0488 74.8145 73.0488 73.8574ZM86.7973 73.8574C86.7973 72.9004 87.1879 72.4219 87.9691 72.4219C88.7699 72.4219 89.1703 72.9004 89.1703 73.8574C89.1703 74.8145 88.7699 75.293 87.9691 75.293C87.1879 75.293 86.7973 74.8145 86.7973 73.8574ZM100.546 73.8574C100.546 72.9004 100.936 72.4219 101.718 72.4219C102.518 72.4219 102.919 72.9004 102.919 73.8574C102.919 74.8145 102.518 75.293 101.718 75.293C100.936 75.293 100.546 74.8145 100.546 73.8574ZM114.294 73.8574C114.294 72.9004 114.685 72.4219 115.466 72.4219C116.267 72.4219 116.667 72.9004 116.667 73.8574C116.667 74.8145 116.267 75.293 115.466 75.293C114.685 75.293 114.294 74.8145 114.294 73.8574ZM128.043 73.8574C128.043 72.9004 128.433 72.4219 129.214 72.4219C130.015 72.4219 130.416 72.9004 130.416 73.8574C130.416 74.8145 130.015 75.293 129.214 75.293C128.433 75.293 128.043 74.8145 128.043 73.8574Z" fill="#2926C3"/>
<path d="M45.552 85.8574C45.552 84.9004 45.9426 84.4219 46.7238 84.4219C47.5246 84.4219 47.925 84.9004 47.925 85.8574C47.925 86.8145 47.5246 87.293 46.7238 87.293C45.9426 87.293 45.552 86.8145 45.552 85.8574ZM59.3004 85.8574C59.3004 84.9004 59.691 84.4219 60.4723 84.4219C61.273 84.4219 61.6734 84.9004 61.6734 85.8574C61.6734 86.8145 61.273 87.293 60.4723 87.293C59.691 87.293 59.3004 86.8145 59.3004 85.8574ZM73.0488 85.8574C73.0488 84.9004 73.4395 84.4219 74.2207 84.4219C75.0215 84.4219 75.4219 84.9004 75.4219 85.8574C75.4219 86.8145 75.0215 87.293 74.2207 87.293C73.4395 87.293 73.0488 86.8145 73.0488 85.8574ZM86.7973 85.8574C86.7973 84.9004 87.1879 84.4219 87.9691 84.4219C88.7699 84.4219 89.1703 84.9004 89.1703 85.8574C89.1703 86.8145 88.7699 87.293 87.9691 87.293C87.1879 87.293 86.7973 86.8145 86.7973 85.8574ZM100.546 85.8574C100.546 84.9004 100.936 84.4219 101.718 84.4219C102.518 84.4219 102.919 84.9004 102.919 85.8574C102.919 86.8145 102.518 87.293 101.718 87.293C100.936 87.293 100.546 86.8145 100.546 85.8574ZM114.294 85.8574C114.294 84.9004 114.685 84.4219 115.466 84.4219C116.267 84.4219 116.667 84.9004 116.667 85.8574C116.667 86.8145 116.267 87.293 115.466 87.293C114.685 87.293 114.294 86.8145 114.294 85.8574ZM128.043 85.8574C128.043 84.9004 128.433 84.4219 129.214 84.4219C130.015 84.4219 130.416 84.9004 130.416 85.8574C130.416 86.8145 130.015 87.293 129.214 87.293C128.433 87.293 128.043 86.8145 128.043 85.8574Z" fill="#2926C3"/>
<path d="M45.552 97.8574C45.552 96.9004 45.9426 96.4219 46.7238 96.4219C47.5246 96.4219 47.925 96.9004 47.925 97.8574C47.925 98.8145 47.5246 99.293 46.7238 99.293C45.9426 99.293 45.552 98.8145 45.552 97.8574ZM59.3004 97.8574C59.3004 96.9004 59.691 96.4219 60.4723 96.4219C61.273 96.4219 61.6734 96.9004 61.6734 97.8574C61.6734 98.8145 61.273 99.293 60.4723 99.293C59.691 99.293 59.3004 98.8145 59.3004 97.8574ZM73.0488 97.8574C73.0488 96.9004 73.4395 96.4219 74.2207 96.4219C75.0215 96.4219 75.4219 96.9004 75.4219 97.8574C75.4219 98.8145 75.0215 99.293 74.2207 99.293C73.4395 99.293 73.0488 98.8145 73.0488 97.8574ZM86.7973 97.8574C86.7973 96.9004 87.1879 96.4219 87.9691 96.4219C88.7699 96.4219 89.1703 96.9004 89.1703 97.8574C89.1703 98.8145 88.7699 99.293 87.9691 99.293C87.1879 99.293 86.7973 98.8145 86.7973 97.8574ZM100.546 97.8574C100.546 96.9004 100.936 96.4219 101.718 96.4219C102.518 96.4219 102.919 96.9004 102.919 97.8574C102.919 98.8145 102.518 99.293 101.718 99.293C100.936 99.293 100.546 98.8145 100.546 97.8574ZM114.294 97.8574C114.294 96.9004 114.685 96.4219 115.466 96.4219C116.267 96.4219 116.667 96.9004 116.667 97.8574C116.667 98.8145 116.267 99.293 115.466 99.293C114.685 99.293 114.294 98.8145 114.294 97.8574ZM128.043 97.8574C128.043 96.9004 128.433 96.4219 129.214 96.4219C130.015 96.4219 130.416 96.9004 130.416 97.8574C130.416 98.8145 130.015 99.293 129.214 99.293C128.433 99.293 128.043 98.8145 128.043 97.8574Z" fill="#2926C3"/>
<path d="M45.552 109.857C45.552 108.9 45.9426 108.422 46.7238 108.422C47.5246 108.422 47.925 108.9 47.925 109.857C47.925 110.814 47.5246 111.293 46.7238 111.293C45.9426 111.293 45.552 110.814 45.552 109.857ZM59.3004 109.857C59.3004 108.9 59.691 108.422 60.4723 108.422C61.273 108.422 61.6734 108.9 61.6734 109.857C61.6734 110.814 61.273 111.293 60.4723 111.293C59.691 111.293 59.3004 110.814 59.3004 109.857ZM73.0488 109.857C73.0488 108.9 73.4395 108.422 74.2207 108.422C75.0215 108.422 75.4219 108.9 75.4219 109.857C75.4219 110.814 75.0215 111.293 74.2207 111.293C73.4395 111.293 73.0488 110.814 73.0488 109.857ZM86.7973 109.857C86.7973 108.9 87.1879 108.422 87.9691 108.422C88.7699 108.422 89.1703 108.9 89.1703 109.857C89.1703 110.814 88.7699 111.293 87.9691 111.293C87.1879 111.293 86.7973 110.814 86.7973 109.857ZM100.546 109.857C100.546 108.9 100.936 108.422 101.718 108.422C102.518 108.422 102.919 108.9 102.919 109.857C102.919 110.814 102.518 111.293 101.718 111.293C100.936 111.293 100.546 110.814 100.546 109.857ZM114.294 109.857C114.294 108.9 114.685 108.422 115.466 108.422C116.267 108.422 116.667 108.9 116.667 109.857C116.667 110.814 116.267 111.293 115.466 111.293C114.685 111.293 114.294 110.814 114.294 109.857ZM128.043 109.857C128.043 108.9 128.433 108.422 129.214 108.422C130.015 108.422 130.416 108.9 130.416 109.857C130.416 110.814 130.015 111.293 129.214 111.293C128.433 111.293 128.043 110.814 128.043 109.857Z" fill="#2926C3"/>
<path d="M45.552 121.857C45.552 120.9 45.9426 120.422 46.7238 120.422C47.5246 120.422 47.925 120.9 47.925 121.857C47.925 122.814 47.5246 123.293 46.7238 123.293C45.9426 123.293 45.552 122.814 45.552 121.857ZM59.3004 121.857C59.3004 120.9 59.691 120.422 60.4723 120.422C61.273 120.422 61.6734 120.9 61.6734 121.857C61.6734 122.814 61.273 123.293 60.4723 123.293C59.691 123.293 59.3004 122.814 59.3004 121.857ZM73.0488 121.857C73.0488 120.9 73.4395 120.422 74.2207 120.422C75.0215 120.422 75.4219 120.9 75.4219 121.857C75.4219 122.814 75.0215 123.293 74.2207 123.293C73.4395 123.293 73.0488 122.814 73.0488 121.857ZM86.7973 121.857C86.7973 120.9 87.1879 120.422 87.9691 120.422C88.7699 120.422 89.1703 120.9 89.1703 121.857C89.1703 122.814 88.7699 123.293 87.9691 123.293C87.1879 123.293 86.7973 122.814 86.7973 121.857ZM100.546 121.857C100.546 120.9 100.936 120.422 101.718 120.422C102.518 120.422 102.919 120.9 102.919 121.857C102.919 122.814 102.518 123.293 101.718 123.293C100.936 123.293 100.546 122.814 100.546 121.857ZM114.294 121.857C114.294 120.9 114.685 120.422 115.466 120.422C116.267 120.422 116.667 120.9 116.667 121.857C116.667 122.814 116.267 123.293 115.466 123.293C114.685 123.293 114.294 122.814 114.294 121.857ZM128.043 121.857C128.043 120.9 128.433 120.422 129.214 120.422C130.015 120.422 130.416 120.9 130.416 121.857C130.416 122.814 130.015 123.293 129.214 123.293C128.433 123.293 128.043 122.814 128.043 121.857Z" fill="#2926C3"/>
<path d="M45.552 133.857C45.552 132.9 45.9426 132.422 46.7238 132.422C47.5246 132.422 47.925 132.9 47.925 133.857C47.925 134.814 47.5246 135.293 46.7238 135.293C45.9426 135.293 45.552 134.814 45.552 133.857ZM59.3004 133.857C59.3004 132.9 59.691 132.422 60.4723 132.422C61.273 132.422 61.6734 132.9 61.6734 133.857C61.6734 134.814 61.273 135.293 60.4723 135.293C59.691 135.293 59.3004 134.814 59.3004 133.857ZM73.0488 133.857C73.0488 132.9 73.4395 132.422 74.2207 132.422C75.0215 132.422 75.4219 132.9 75.4219 133.857C75.4219 134.814 75.0215 135.293 74.2207 135.293C73.4395 135.293 73.0488 134.814 73.0488 133.857ZM86.7973 133.857C86.7973 132.9 87.1879 132.422 87.9691 132.422C88.7699 132.422 89.1703 132.9 89.1703 133.857C89.1703 134.814 88.7699 135.293 87.9691 135.293C87.1879 135.293 86.7973 134.814 86.7973 133.857ZM100.546 133.857C100.546 132.9 100.936 132.422 101.718 132.422C102.518 132.422 102.919 132.9 102.919 133.857C102.919 134.814 102.518 135.293 101.718 135.293C100.936 135.293 100.546 134.814 100.546 133.857ZM114.294 133.857C114.294 132.9 114.685 132.422 115.466 132.422C116.267 132.422 116.667 132.9 116.667 133.857C116.667 134.814 116.267 135.293 115.466 135.293C114.685 135.293 114.294 134.814 114.294 133.857ZM128.043 133.857C128.043 132.9 128.433 132.422 129.214 132.422C130.015 132.422 130.416 132.9 130.416 133.857C130.416 134.814 130.015 135.293 129.214 135.293C128.433 135.293 128.043 134.814 128.043 133.857Z" fill="#2926C3"/>
<path d="M45.552 145.857C45.552 144.9 45.9426 144.422 46.7238 144.422C47.5246 144.422 47.925 144.9 47.925 145.857C47.925 146.814 47.5246 147.293 46.7238 147.293C45.9426 147.293 45.552 146.814 45.552 145.857ZM59.3004 145.857C59.3004 144.9 59.691 144.422 60.4723 144.422C61.273 144.422 61.6734 144.9 61.6734 145.857C61.6734 146.814 61.273 147.293 60.4723 147.293C59.691 147.293 59.3004 146.814 59.3004 145.857ZM73.0488 145.857C73.0488 144.9 73.4395 144.422 74.2207 144.422C75.0215 144.422 75.4219 144.9 75.4219 145.857C75.4219 146.814 75.0215 147.293 74.2207 147.293C73.4395 147.293 73.0488 146.814 73.0488 145.857ZM86.7973 145.857C86.7973 144.9 87.1879 144.422 87.9691 144.422C88.7699 144.422 89.1703 144.9 89.1703 145.857C89.1703 146.814 88.7699 147.293 87.9691 147.293C87.1879 147.293 86.7973 146.814 86.7973 145.857ZM100.546 145.857C100.546 144.9 100.936 144.422 101.718 144.422C102.518 144.422 102.919 144.9 102.919 145.857C102.919 146.814 102.518 147.293 101.718 147.293C100.936 147.293 100.546 146.814 100.546 145.857ZM114.294 145.857C114.294 144.9 114.685 144.422 115.466 144.422C116.267 144.422 116.667 144.9 116.667 145.857C116.667 146.814 116.267 147.293 115.466 147.293C114.685 147.293 114.294 146.814 114.294 145.857ZM128.043 145.857C128.043 144.9 128.433 144.422 129.214 144.422C130.015 144.422 130.416 144.9 130.416 145.857C130.416 146.814 130.015 147.293 129.214 147.293C128.433 147.293 128.043 146.814 128.043 145.857Z" fill="#2926C3"/>
<path d="M45.552 157.857C45.552 156.9 45.9426 156.422 46.7238 156.422C47.5246 156.422 47.925 156.9 47.925 157.857C47.925 158.814 47.5246 159.293 46.7238 159.293C45.9426 159.293 45.552 158.814 45.552 157.857ZM59.3004 157.857C59.3004 156.9 59.691 156.422 60.4723 156.422C61.273 156.422 61.6734 156.9 61.6734 157.857C61.6734 158.814 61.273 159.293 60.4723 159.293C59.691 159.293 59.3004 158.814 59.3004 157.857ZM73.0488 157.857C73.0488 156.9 73.4395 156.422 74.2207 156.422C75.0215 156.422 75.4219 156.9 75.4219 157.857C75.4219 158.814 75.0215 159.293 74.2207 159.293C73.4395 159.293 73.0488 158.814 73.0488 157.857ZM86.7973 157.857C86.7973 156.9 87.1879 156.422 87.9691 156.422C88.7699 156.422 89.1703 156.9 89.1703 157.857C89.1703 158.814 88.7699 159.293 87.9691 159.293C87.1879 159.293 86.7973 158.814 86.7973 157.857ZM100.546 157.857C100.546 156.9 100.936 156.422 101.718 156.422C102.518 156.422 102.919 156.9 102.919 157.857C102.919 158.814 102.518 159.293 101.718 159.293C100.936 159.293 100.546 158.814 100.546 157.857ZM114.294 157.857C114.294 156.9 114.685 156.422 115.466 156.422C116.267 156.422 116.667 156.9 116.667 157.857C116.667 158.814 116.267 159.293 115.466 159.293C114.685 159.293 114.294 158.814 114.294 157.857ZM128.043 157.857C128.043 156.9 128.433 156.422 129.214 156.422C130.015 156.422 130.416 156.9 130.416 157.857C130.416 158.814 130.015 159.293 129.214 159.293C128.433 159.293 128.043 158.814 128.043 157.857Z" fill="#2926C3"/>
<path d="M45.552 169.857C45.552 168.9 45.9426 168.422 46.7238 168.422C47.5246 168.422 47.925 168.9 47.925 169.857C47.925 170.814 47.5246 171.293 46.7238 171.293C45.9426 171.293 45.552 170.814 45.552 169.857ZM59.3004 169.857C59.3004 168.9 59.691 168.422 60.4723 168.422C61.273 168.422 61.6734 168.9 61.6734 169.857C61.6734 170.814 61.273 171.293 60.4723 171.293C59.691 171.293 59.3004 170.814 59.3004 169.857ZM73.0488 169.857C73.0488 168.9 73.4395 168.422 74.2207 168.422C75.0215 168.422 75.4219 168.9 75.4219 169.857C75.4219 170.814 75.0215 171.293 74.2207 171.293C73.4395 171.293 73.0488 170.814 73.0488 169.857ZM86.7973 169.857C86.7973 168.9 87.1879 168.422 87.9691 168.422C88.7699 168.422 89.1703 168.9 89.1703 169.857C89.1703 170.814 88.7699 171.293 87.9691 171.293C87.1879 171.293 86.7973 170.814 86.7973 169.857ZM100.546 169.857C100.546 168.9 100.936 168.422 101.718 168.422C102.518 168.422 102.919 168.9 102.919 169.857C102.919 170.814 102.518 171.293 101.718 171.293C100.936 171.293 100.546 170.814 100.546 169.857ZM114.294 169.857C114.294 168.9 114.685 168.422 115.466 168.422C116.267 168.422 116.667 168.9 116.667 169.857C116.667 170.814 116.267 171.293 115.466 171.293C114.685 171.293 114.294 170.814 114.294 169.857ZM128.043 169.857C128.043 168.9 128.433 168.422 129.214 168.422C130.015 168.422 130.416 168.9 130.416 169.857C130.416 170.814 130.015 171.293 129.214 171.293C128.433 171.293 128.043 170.814 128.043 169.857Z" fill="#2926C3"/>
<path d="M45.552 37.8574C45.552 36.9004 45.9426 36.4219 46.7238 36.4219C47.5246 36.4219 47.925 36.9004 47.925 37.8574C47.925 38.8145 47.5246 39.293 46.7238 39.293C45.9426 39.293 45.552 38.8145 45.552 37.8574ZM59.3004 37.8574C59.3004 36.9004 59.691 36.4219 60.4723 36.4219C61.273 36.4219 61.6734 36.9004 61.6734 37.8574C61.6734 38.8145 61.273 39.293 60.4723 39.293C59.691 39.293 59.3004 38.8145 59.3004 37.8574ZM73.0488 37.8574C73.0488 36.9004 73.4395 36.4219 74.2207 36.4219C75.0215 36.4219 75.4219 36.9004 75.4219 37.8574C75.4219 38.8145 75.0215 39.293 74.2207 39.293C73.4395 39.293 73.0488 38.8145 73.0488 37.8574ZM86.7973 37.8574C86.7973 36.9004 87.1879 36.4219 87.9691 36.4219C88.7699 36.4219 89.1703 36.9004 89.1703 37.8574C89.1703 38.8145 88.7699 39.293 87.9691 39.293C87.1879 39.293 86.7973 38.8145 86.7973 37.8574ZM100.546 37.8574C100.546 36.9004 100.936 36.4219 101.718 36.4219C102.518 36.4219 102.919 36.9004 102.919 37.8574C102.919 38.8145 102.518 39.293 101.718 39.293C100.936 39.293 100.546 38.8145 100.546 37.8574ZM114.294 37.8574C114.294 36.9004 114.685 36.4219 115.466 36.4219C116.267 36.4219 116.667 36.9004 116.667 37.8574C116.667 38.8145 116.267 39.293 115.466 39.293C114.685 39.293 114.294 38.8145 114.294 37.8574ZM128.043 37.8574C128.043 36.9004 128.433 36.4219 129.214 36.4219C130.015 36.4219 130.416 36.9004 130.416 37.8574C130.416 38.8145 130.015 39.293 129.214 39.293C128.433 39.293 128.043 38.8145 128.043 37.8574Z" fill="#2926C3"/>
<path d="M45.552 25.8574C45.552 24.9004 45.9426 24.4219 46.7238 24.4219C47.5246 24.4219 47.925 24.9004 47.925 25.8574C47.925 26.8145 47.5246 27.293 46.7238 27.293C45.9426 27.293 45.552 26.8145 45.552 25.8574ZM59.3004 25.8574C59.3004 24.9004 59.691 24.4219 60.4723 24.4219C61.273 24.4219 61.6734 24.9004 61.6734 25.8574C61.6734 26.8145 61.273 27.293 60.4723 27.293C59.691 27.293 59.3004 26.8145 59.3004 25.8574ZM73.0488 25.8574C73.0488 24.9004 73.4395 24.4219 74.2207 24.4219C75.0215 24.4219 75.4219 24.9004 75.4219 25.8574C75.4219 26.8145 75.0215 27.293 74.2207 27.293C73.4395 27.293 73.0488 26.8145 73.0488 25.8574ZM86.7973 25.8574C86.7973 24.9004 87.1879 24.4219 87.9691 24.4219C88.7699 24.4219 89.1703 24.9004 89.1703 25.8574C89.1703 26.8145 88.7699 27.293 87.9691 27.293C87.1879 27.293 86.7973 26.8145 86.7973 25.8574ZM100.546 25.8574C100.546 24.9004 100.936 24.4219 101.718 24.4219C102.518 24.4219 102.919 24.9004 102.919 25.8574C102.919 26.8145 102.518 27.293 101.718 27.293C100.936 27.293 100.546 26.8145 100.546 25.8574ZM114.294 25.8574C114.294 24.9004 114.685 24.4219 115.466 24.4219C116.267 24.4219 116.667 24.9004 116.667 25.8574C116.667 26.8145 116.267 27.293 115.466 27.293C114.685 27.293 114.294 26.8145 114.294 25.8574ZM128.043 25.8574C128.043 24.9004 128.433 24.4219 129.214 24.4219C130.015 24.4219 130.416 24.9004 130.416 25.8574C130.416 26.8145 130.015 27.293 129.214 27.293C128.433 27.293 128.043 26.8145 128.043 25.8574Z" fill="#2926C3"/>
<circle cx="127.5" cy="84.5" r="51.5" fill="#2926C3"/>
<path d="M120.105 79.4691L124.207 65.2436H113.822L108.236 78.0727C105.705 83.6582 105.356 85.5782 105.356 88.0218C105.356 93.9564 109.545 97.7964 115.305 97.7964C120.978 97.7964 125.255 93.9564 125.255 88.0218C125.255 83.92 123.247 80.9527 120.105 79.4691ZM142.971 79.4691L147.073 65.2436H136.687L131.102 78.0727C128.571 83.6582 128.222 85.5782 128.222 88.0218C128.222 93.9564 132.411 97.7964 138.171 97.7964C143.844 97.7964 148.12 93.9564 148.12 88.0218C148.12 83.92 146.113 80.9527 142.971 79.4691Z" fill="white"/>
<path d="M192.684 130H184.969V107.754H177.996V101.445H199.637V107.754H192.684V130ZM219.472 130H202.519V101.445H219.472V107.637H210.234V112.129H218.788V118.32H210.234V123.711H219.472V130ZM241.944 121.328C241.944 123.099 241.495 124.674 240.596 126.055C239.698 127.422 238.402 128.49 236.709 129.258C235.017 130.013 233.031 130.391 230.752 130.391C228.851 130.391 227.256 130.26 225.967 130C224.678 129.727 223.337 129.258 221.944 128.594V121.719C223.415 122.474 224.945 123.066 226.534 123.496C228.122 123.913 229.58 124.121 230.909 124.121C232.054 124.121 232.894 123.926 233.428 123.535C233.962 123.132 234.229 122.617 234.229 121.992C234.229 121.602 234.118 121.263 233.897 120.977C233.689 120.677 233.343 120.378 232.862 120.078C232.393 119.779 231.13 119.167 229.073 118.242C227.211 117.396 225.811 116.576 224.873 115.781C223.949 114.987 223.259 114.076 222.803 113.047C222.36 112.018 222.139 110.801 222.139 109.395C222.139 106.764 223.096 104.714 225.01 103.242C226.924 101.771 229.554 101.035 232.901 101.035C235.857 101.035 238.871 101.719 241.944 103.086L239.58 109.043C236.911 107.819 234.607 107.207 232.666 107.207C231.664 107.207 230.935 107.383 230.479 107.734C230.023 108.086 229.795 108.522 229.795 109.043C229.795 109.603 230.082 110.104 230.655 110.547C231.241 110.99 232.816 111.797 235.381 112.969C237.842 114.076 239.548 115.267 240.498 116.543C241.462 117.806 241.944 119.401 241.944 121.328ZM257.755 130H250.041V107.754H243.068V101.445H264.709V107.754H257.755V130ZM267.591 130V101.445H275.345V130H267.591ZM292.777 130L286.938 109.434H286.762C287.035 112.936 287.172 115.658 287.172 117.598V130H280.336V101.445H290.609L296.566 121.719H296.723L302.562 101.445H312.855V130H305.766V117.48C305.766 116.829 305.772 116.107 305.785 115.312C305.811 114.518 305.902 112.572 306.059 109.473H305.883L300.121 130H292.777ZM344.527 115.684C344.527 120.488 343.348 124.141 340.991 126.641C338.635 129.141 335.184 130.391 330.64 130.391C326.161 130.391 322.723 129.134 320.327 126.621C317.945 124.108 316.753 120.449 316.753 115.645C316.753 110.892 317.938 107.266 320.308 104.766C322.691 102.253 326.148 100.996 330.679 100.996C335.223 100.996 338.667 102.24 341.011 104.727C343.355 107.214 344.527 110.866 344.527 115.684ZM324.878 115.684C324.878 121.204 326.799 123.965 330.64 123.965C332.593 123.965 334.038 123.294 334.976 121.953C335.926 120.612 336.402 118.522 336.402 115.684C336.402 112.832 335.92 110.729 334.956 109.375C334.006 108.008 332.58 107.324 330.679 107.324C326.812 107.324 324.878 110.111 324.878 115.684ZM375.67 130H365.553L355.123 109.883H354.948C355.195 113.047 355.319 115.462 355.319 117.129V130H348.483V101.445H358.561L368.952 121.289H369.069C368.886 118.411 368.795 116.1 368.795 114.355V101.445H375.67V130ZM380.642 130V101.445H388.396V130H380.642ZM410.907 130L409.501 124.648H400.223L398.778 130H390.302L399.618 101.328H409.911L419.345 130H410.907ZM407.899 118.32L406.669 113.633C406.382 112.591 406.031 111.243 405.614 109.59C405.21 107.936 404.943 106.751 404.813 106.035C404.696 106.699 404.462 107.793 404.11 109.316C403.772 110.84 403.01 113.841 401.825 118.32H407.899ZM421.25 130V101.445H428.965V123.77H439.961V130H421.25ZM462.003 121.328C462.003 123.099 461.554 124.674 460.655 126.055C459.757 127.422 458.461 128.49 456.769 129.258C455.076 130.013 453.09 130.391 450.812 130.391C448.911 130.391 447.316 130.26 446.027 130C444.737 129.727 443.396 129.258 442.003 128.594V121.719C443.474 122.474 445.004 123.066 446.593 123.496C448.181 123.913 449.64 124.121 450.968 124.121C452.114 124.121 452.954 123.926 453.487 123.535C454.021 123.132 454.288 122.617 454.288 121.992C454.288 121.602 454.178 121.263 453.956 120.977C453.748 120.677 453.403 120.378 452.921 120.078C452.452 119.779 451.189 119.167 449.132 118.242C447.27 117.396 445.87 116.576 444.933 115.781C444.008 114.987 443.318 114.076 442.862 113.047C442.42 112.018 442.198 110.801 442.198 109.395C442.198 106.764 443.155 104.714 445.07 103.242C446.984 101.771 449.614 101.035 452.96 101.035C455.916 101.035 458.93 101.719 462.003 103.086L459.64 109.043C456.971 107.819 454.666 107.207 452.726 107.207C451.723 107.207 450.994 107.383 450.538 107.734C450.083 108.086 449.855 108.522 449.855 109.043C449.855 109.603 450.141 110.104 450.714 110.547C451.3 110.99 452.876 111.797 455.441 112.969C457.902 114.076 459.607 115.267 460.558 116.543C461.521 117.806 462.003 119.401 462.003 121.328Z" fill="#2926C3"/>
<path d="M206.636 175H204.175L199.854 160.659C199.648 160.024 199.419 159.224 199.165 158.257C198.911 157.29 198.779 156.709 198.77 156.514C198.555 157.803 198.213 159.214 197.744 160.747L193.555 175H191.094L185.396 153.584H188.032L191.416 166.812C191.885 168.667 192.227 170.347 192.441 171.851C192.705 170.063 193.096 168.315 193.613 166.606L197.451 153.584H200.088L204.116 166.724C204.585 168.237 204.98 169.946 205.303 171.851C205.488 170.464 205.84 168.774 206.357 166.782L209.727 153.584H212.363L206.636 175ZM225.438 175V164.614C225.438 163.306 225.14 162.329 224.544 161.685C223.949 161.04 223.016 160.718 221.746 160.718C220.057 160.718 218.822 161.177 218.04 162.095C217.269 163.013 216.883 164.517 216.883 166.606V175H214.452V152.207H216.883V159.106C216.883 159.937 216.844 160.625 216.766 161.172H216.913C217.391 160.4 218.07 159.795 218.949 159.355C219.837 158.906 220.848 158.682 221.981 158.682C223.944 158.682 225.413 159.15 226.39 160.088C227.376 161.016 227.87 162.495 227.87 164.526V175H225.438ZM241.852 175L241.369 172.715H241.252C240.451 173.721 239.65 174.404 238.849 174.766C238.058 175.117 237.067 175.293 235.876 175.293C234.284 175.293 233.034 174.883 232.126 174.062C231.227 173.242 230.778 172.075 230.778 170.562C230.778 167.319 233.371 165.62 238.556 165.464L241.281 165.376V164.38C241.281 163.12 241.008 162.192 240.461 161.597C239.924 160.991 239.059 160.688 237.868 160.688C236.53 160.688 235.016 161.099 233.327 161.919L232.58 160.059C233.371 159.629 234.235 159.292 235.173 159.048C236.12 158.804 237.067 158.682 238.014 158.682C239.929 158.682 241.345 159.106 242.263 159.956C243.19 160.806 243.654 162.168 243.654 164.043V175H241.852ZM236.359 173.286C237.873 173.286 239.059 172.871 239.919 172.041C240.788 171.211 241.222 170.049 241.222 168.555V167.104L238.791 167.207C236.857 167.275 235.461 167.578 234.601 168.115C233.752 168.643 233.327 169.468 233.327 170.591C233.327 171.47 233.591 172.139 234.118 172.598C234.655 173.057 235.402 173.286 236.359 173.286ZM252.964 173.286C253.394 173.286 253.809 173.257 254.209 173.198C254.61 173.13 254.927 173.062 255.161 172.993V174.854C254.898 174.98 254.507 175.083 253.989 175.161C253.482 175.249 253.023 175.293 252.612 175.293C249.507 175.293 247.954 173.657 247.954 170.386V160.835H245.654V159.663L247.954 158.652L248.98 155.225H250.386V158.945H255.044V160.835H250.386V170.283C250.386 171.25 250.615 171.992 251.074 172.51C251.533 173.027 252.163 173.286 252.964 173.286ZM283.332 164.263C283.332 167.69 282.463 170.386 280.725 172.349C278.996 174.312 276.589 175.293 273.503 175.293C270.349 175.293 267.912 174.331 266.193 172.407C264.484 170.474 263.63 167.749 263.63 164.233C263.63 160.747 264.489 158.047 266.208 156.133C267.927 154.209 270.368 153.247 273.532 153.247C276.608 153.247 279.011 154.224 280.739 156.177C282.468 158.13 283.332 160.825 283.332 164.263ZM266.267 164.263C266.267 167.163 266.882 169.365 268.112 170.869C269.353 172.363 271.149 173.11 273.503 173.11C275.876 173.11 277.668 172.363 278.879 170.869C280.09 169.375 280.695 167.173 280.695 164.263C280.695 161.382 280.09 159.199 278.879 157.715C277.678 156.221 275.896 155.474 273.532 155.474C271.159 155.474 269.353 156.226 268.112 157.729C266.882 159.224 266.267 161.401 266.267 164.263ZM289.141 158.945V169.36C289.141 170.669 289.439 171.646 290.035 172.29C290.63 172.935 291.563 173.257 292.832 173.257C294.512 173.257 295.738 172.798 296.509 171.88C297.29 170.962 297.681 169.463 297.681 167.383V158.945H300.113V175H298.106L297.754 172.847H297.622C297.124 173.638 296.431 174.243 295.542 174.663C294.663 175.083 293.658 175.293 292.525 175.293C290.572 175.293 289.107 174.829 288.13 173.901C287.163 172.974 286.68 171.489 286.68 169.448V158.945H289.141ZM311.708 158.652C312.421 158.652 313.06 158.711 313.627 158.828L313.29 161.084C312.626 160.938 312.04 160.864 311.532 160.864C310.233 160.864 309.12 161.392 308.192 162.446C307.274 163.501 306.815 164.814 306.815 166.387V175H304.384V158.945H306.39L306.669 161.919H306.786C307.382 160.874 308.099 160.068 308.939 159.502C309.779 158.936 310.702 158.652 311.708 158.652ZM332.159 155.503C329.805 155.503 327.945 156.289 326.578 157.861C325.22 159.424 324.542 161.567 324.542 164.292C324.542 167.095 325.196 169.263 326.504 170.796C327.823 172.319 329.698 173.081 332.129 173.081C333.624 173.081 335.328 172.812 337.242 172.275V174.458C335.757 175.015 333.926 175.293 331.749 175.293C328.594 175.293 326.158 174.336 324.439 172.422C322.73 170.508 321.876 167.788 321.876 164.263C321.876 162.056 322.286 160.122 323.106 158.462C323.936 156.802 325.128 155.522 326.68 154.624C328.243 153.726 330.079 153.276 332.188 153.276C334.434 153.276 336.397 153.687 338.077 154.507L337.022 156.646C335.401 155.884 333.78 155.503 332.159 155.503ZM342.934 158.945V169.36C342.934 170.669 343.231 171.646 343.827 172.29C344.423 172.935 345.355 173.257 346.625 173.257C348.305 173.257 349.53 172.798 350.302 171.88C351.083 170.962 351.474 169.463 351.474 167.383V158.945H353.905V175H351.898L351.547 172.847H351.415C350.917 173.638 350.224 174.243 349.335 174.663C348.456 175.083 347.45 175.293 346.317 175.293C344.364 175.293 342.899 174.829 341.923 173.901C340.956 172.974 340.473 171.489 340.473 169.448V158.945H342.934ZM368.533 170.62C368.533 172.114 367.976 173.267 366.863 174.077C365.749 174.888 364.187 175.293 362.175 175.293C360.046 175.293 358.386 174.956 357.195 174.282V172.026C357.966 172.417 358.791 172.725 359.67 172.949C360.559 173.174 361.413 173.286 362.234 173.286C363.503 173.286 364.48 173.086 365.163 172.686C365.847 172.275 366.189 171.655 366.189 170.825C366.189 170.2 365.915 169.668 365.369 169.229C364.831 168.779 363.777 168.252 362.204 167.646C360.71 167.09 359.646 166.606 359.011 166.196C358.386 165.776 357.917 165.303 357.605 164.775C357.302 164.248 357.151 163.618 357.151 162.886C357.151 161.577 357.683 160.547 358.747 159.795C359.812 159.033 361.272 158.652 363.127 158.652C364.856 158.652 366.545 159.004 368.196 159.707L367.331 161.685C365.72 161.021 364.26 160.688 362.952 160.688C361.799 160.688 360.93 160.869 360.344 161.23C359.758 161.592 359.465 162.09 359.465 162.725C359.465 163.154 359.573 163.521 359.788 163.823C360.012 164.126 360.369 164.414 360.857 164.688C361.345 164.961 362.283 165.356 363.669 165.874C365.574 166.567 366.858 167.266 367.522 167.969C368.196 168.672 368.533 169.556 368.533 170.62ZM376.788 173.286C377.218 173.286 377.633 173.257 378.033 173.198C378.433 173.13 378.751 173.062 378.985 172.993V174.854C378.721 174.98 378.331 175.083 377.813 175.161C377.305 175.249 376.846 175.293 376.436 175.293C373.331 175.293 371.778 173.657 371.778 170.386V160.835H369.478V159.663L371.778 158.652L372.804 155.225H374.21V158.945H378.868V160.835H374.21V170.283C374.21 171.25 374.439 171.992 374.898 172.51C375.357 173.027 375.987 173.286 376.788 173.286ZM395.165 166.958C395.165 169.575 394.506 171.621 393.188 173.096C391.869 174.561 390.048 175.293 387.724 175.293C386.288 175.293 385.014 174.956 383.901 174.282C382.787 173.608 381.928 172.642 381.322 171.382C380.717 170.122 380.414 168.647 380.414 166.958C380.414 164.341 381.069 162.305 382.377 160.85C383.686 159.385 385.502 158.652 387.826 158.652C390.072 158.652 391.855 159.399 393.173 160.894C394.501 162.388 395.165 164.409 395.165 166.958ZM382.934 166.958C382.934 169.009 383.344 170.571 384.164 171.646C384.985 172.72 386.191 173.257 387.782 173.257C389.374 173.257 390.58 172.725 391.401 171.66C392.231 170.586 392.646 169.019 392.646 166.958C392.646 164.917 392.231 163.369 391.401 162.314C390.58 161.25 389.364 160.718 387.753 160.718C386.161 160.718 384.96 161.24 384.15 162.285C383.339 163.33 382.934 164.888 382.934 166.958ZM419.006 175V164.556C419.006 163.276 418.733 162.319 418.186 161.685C417.639 161.04 416.79 160.718 415.637 160.718C414.124 160.718 413.005 161.152 412.283 162.021C411.56 162.891 411.199 164.229 411.199 166.035V175H408.767V164.556C408.767 163.276 408.494 162.319 407.947 161.685C407.4 161.04 406.546 160.718 405.383 160.718C403.86 160.718 402.742 161.177 402.029 162.095C401.326 163.003 400.974 164.497 400.974 166.577V175H398.543V158.945H400.52L400.916 161.143H401.033C401.492 160.361 402.136 159.751 402.966 159.312C403.806 158.872 404.744 158.652 405.779 158.652C408.289 158.652 409.929 159.561 410.701 161.377H410.818C411.296 160.537 411.99 159.873 412.898 159.385C413.806 158.896 414.841 158.652 416.004 158.652C417.82 158.652 419.177 159.121 420.076 160.059C420.984 160.986 421.438 162.476 421.438 164.526V175H419.006ZM432.345 175.293C429.972 175.293 428.097 174.57 426.72 173.125C425.353 171.68 424.669 169.673 424.669 167.104C424.669 164.517 425.304 162.461 426.573 160.938C427.853 159.414 429.566 158.652 431.715 158.652C433.727 158.652 435.318 159.316 436.49 160.645C437.662 161.963 438.248 163.706 438.248 165.874V167.412H427.188C427.237 169.297 427.711 170.728 428.609 171.704C429.518 172.681 430.792 173.169 432.433 173.169C434.161 173.169 435.87 172.808 437.56 172.085V174.253C436.7 174.624 435.885 174.888 435.113 175.044C434.352 175.21 433.429 175.293 432.345 175.293ZM431.686 160.688C430.396 160.688 429.366 161.108 428.595 161.948C427.833 162.788 427.384 163.95 427.247 165.435H435.641C435.641 163.901 435.299 162.729 434.615 161.919C433.932 161.099 432.955 160.688 431.686 160.688ZM448.832 158.652C449.545 158.652 450.185 158.711 450.751 158.828L450.414 161.084C449.75 160.938 449.164 160.864 448.657 160.864C447.358 160.864 446.245 161.392 445.317 162.446C444.399 163.501 443.94 164.814 443.94 166.387V175H441.508V158.945H443.515L443.793 161.919H443.911C444.506 160.874 445.224 160.068 446.064 159.502C446.904 158.936 447.827 158.652 448.832 158.652ZM463.211 170.62C463.211 172.114 462.654 173.267 461.541 174.077C460.428 174.888 458.865 175.293 456.853 175.293C454.724 175.293 453.064 174.956 451.873 174.282V172.026C452.644 172.417 453.47 172.725 454.348 172.949C455.237 173.174 456.092 173.286 456.912 173.286C458.181 173.286 459.158 173.086 459.842 172.686C460.525 172.275 460.867 171.655 460.867 170.825C460.867 170.2 460.594 169.668 460.047 169.229C459.51 168.779 458.455 168.252 456.883 167.646C455.388 167.09 454.324 166.606 453.689 166.196C453.064 165.776 452.596 165.303 452.283 164.775C451.98 164.248 451.829 163.618 451.829 162.886C451.829 161.577 452.361 160.547 453.426 159.795C454.49 159.033 455.95 158.652 457.805 158.652C459.534 158.652 461.223 159.004 462.874 159.707L462.01 161.685C460.398 161.021 458.938 160.688 457.63 160.688C456.477 160.688 455.608 160.869 455.022 161.23C454.436 161.592 454.143 162.09 454.143 162.725C454.143 163.154 454.251 163.521 454.466 163.823C454.69 164.126 455.047 164.414 455.535 164.688C456.023 164.961 456.961 165.356 458.347 165.874C460.252 166.567 461.536 167.266 462.2 167.969C462.874 168.672 463.211 169.556 463.211 170.62ZM197.451 215L196.968 212.715H196.851C196.05 213.721 195.249 214.404 194.448 214.766C193.657 215.117 192.666 215.293 191.475 215.293C189.883 215.293 188.633 214.883 187.725 214.062C186.826 213.242 186.377 212.075 186.377 210.562C186.377 207.319 188.97 205.62 194.155 205.464L196.88 205.376V204.38C196.88 203.12 196.606 202.192 196.06 201.597C195.522 200.991 194.658 200.688 193.467 200.688C192.129 200.688 190.615 201.099 188.926 201.919L188.179 200.059C188.97 199.629 189.834 199.292 190.771 199.048C191.719 198.804 192.666 198.682 193.613 198.682C195.527 198.682 196.943 199.106 197.861 199.956C198.789 200.806 199.253 202.168 199.253 204.043V215H197.451ZM191.958 213.286C193.472 213.286 194.658 212.871 195.518 212.041C196.387 211.211 196.821 210.049 196.821 208.555V207.104L194.39 207.207C192.456 207.275 191.06 207.578 190.2 208.115C189.351 208.643 188.926 209.468 188.926 210.591C188.926 211.47 189.189 212.139 189.717 212.598C190.254 213.057 191.001 213.286 191.958 213.286ZM210.702 198.652C211.414 198.652 212.054 198.711 212.621 198.828L212.284 201.084C211.62 200.938 211.034 200.864 210.526 200.864C209.227 200.864 208.114 201.392 207.186 202.446C206.268 203.501 205.809 204.814 205.809 206.387V215H203.377V198.945H205.384L205.663 201.919H205.78C206.375 200.874 207.093 200.068 207.933 199.502C208.773 198.936 209.696 198.652 210.702 198.652ZM221.506 215.293C219.133 215.293 217.258 214.57 215.881 213.125C214.513 211.68 213.83 209.673 213.83 207.104C213.83 204.517 214.465 202.461 215.734 200.938C217.013 199.414 218.727 198.652 220.876 198.652C222.888 198.652 224.479 199.316 225.651 200.645C226.823 201.963 227.409 203.706 227.409 205.874V207.412H216.349C216.398 209.297 216.872 210.728 217.77 211.704C218.679 212.681 219.953 213.169 221.594 213.169C223.322 213.169 225.031 212.808 226.721 212.085V214.253C225.861 214.624 225.046 214.888 224.274 215.044C223.513 215.21 222.59 215.293 221.506 215.293ZM220.846 200.688C219.557 200.688 218.527 201.108 217.756 201.948C216.994 202.788 216.545 203.95 216.408 205.435H224.802C224.802 203.901 224.46 202.729 223.776 201.919C223.093 201.099 222.116 200.688 220.846 200.688ZM250.013 209.302C250.013 211.187 249.33 212.656 247.963 213.711C246.595 214.766 244.74 215.293 242.396 215.293C239.857 215.293 237.904 214.966 236.537 214.312V211.909C237.416 212.28 238.373 212.573 239.408 212.788C240.443 213.003 241.468 213.11 242.484 213.11C244.144 213.11 245.394 212.798 246.234 212.173C247.074 211.538 247.494 210.659 247.494 209.536C247.494 208.794 247.342 208.188 247.04 207.72C246.747 207.241 246.249 206.802 245.546 206.401C244.852 206.001 243.793 205.547 242.367 205.039C240.375 204.326 238.949 203.481 238.089 202.505C237.24 201.528 236.815 200.254 236.815 198.682C236.815 197.031 237.435 195.718 238.675 194.741C239.916 193.765 241.556 193.276 243.597 193.276C245.726 193.276 247.684 193.667 249.471 194.448L248.695 196.616C246.927 195.874 245.209 195.503 243.539 195.503C242.22 195.503 241.19 195.786 240.448 196.353C239.706 196.919 239.335 197.705 239.335 198.711C239.335 199.453 239.471 200.063 239.745 200.542C240.018 201.011 240.477 201.445 241.122 201.846C241.776 202.236 242.772 202.671 244.11 203.149C246.356 203.95 247.899 204.81 248.739 205.728C249.588 206.646 250.013 207.837 250.013 209.302ZM263 215L262.517 212.715H262.399C261.599 213.721 260.798 214.404 259.997 214.766C259.206 215.117 258.215 215.293 257.023 215.293C255.432 215.293 254.182 214.883 253.273 214.062C252.375 213.242 251.926 212.075 251.926 210.562C251.926 207.319 254.519 205.62 259.704 205.464L262.429 205.376V204.38C262.429 203.12 262.155 202.192 261.608 201.597C261.071 200.991 260.207 200.688 259.016 200.688C257.678 200.688 256.164 201.099 254.475 201.919L253.728 200.059C254.519 199.629 255.383 199.292 256.32 199.048C257.268 198.804 258.215 198.682 259.162 198.682C261.076 198.682 262.492 199.106 263.41 199.956C264.338 200.806 264.802 202.168 264.802 204.043V215H263ZM257.507 213.286C259.021 213.286 260.207 212.871 261.066 212.041C261.936 211.211 262.37 210.049 262.37 208.555V207.104L259.938 207.207C258.005 207.275 256.608 207.578 255.749 208.115C254.899 208.643 254.475 209.468 254.475 210.591C254.475 211.47 254.738 212.139 255.266 212.598C255.803 213.057 256.55 213.286 257.507 213.286ZM266.377 198.945H268.985L272.5 208.101C273.272 210.19 273.75 211.699 273.936 212.627H274.053C274.18 212.129 274.444 211.279 274.844 210.078C275.254 208.867 276.582 205.156 278.829 198.945H281.436L274.537 217.227C273.853 219.033 273.052 220.312 272.134 221.064C271.226 221.826 270.108 222.207 268.78 222.207C268.037 222.207 267.305 222.124 266.582 221.958V220.01C267.12 220.127 267.72 220.186 268.384 220.186C270.054 220.186 271.246 219.248 271.958 217.373L272.852 215.088L266.377 198.945ZM285.575 215H283.143V198.945H285.575V215ZM282.938 194.595C282.938 194.038 283.075 193.633 283.348 193.379C283.622 193.115 283.964 192.983 284.374 192.983C284.764 192.983 285.101 193.115 285.385 193.379C285.668 193.643 285.809 194.048 285.809 194.595C285.809 195.142 285.668 195.552 285.385 195.825C285.101 196.089 284.764 196.221 284.374 196.221C283.964 196.221 283.622 196.089 283.348 195.825C283.075 195.552 282.938 195.142 282.938 194.595ZM300.818 215V204.614C300.818 203.306 300.52 202.329 299.924 201.685C299.328 201.04 298.396 200.718 297.126 200.718C295.446 200.718 294.216 201.172 293.435 202.08C292.654 202.988 292.263 204.487 292.263 206.577V215H289.831V198.945H291.809L292.204 201.143H292.321C292.82 200.352 293.518 199.741 294.416 199.312C295.315 198.872 296.316 198.652 297.419 198.652C299.353 198.652 300.808 199.121 301.784 200.059C302.761 200.986 303.249 202.476 303.249 204.526V215H300.818ZM320.499 198.945V200.483L317.525 200.835C317.798 201.177 318.043 201.626 318.257 202.183C318.472 202.729 318.58 203.35 318.58 204.043C318.58 205.615 318.043 206.87 316.968 207.808C315.894 208.745 314.42 209.214 312.545 209.214C312.066 209.214 311.617 209.175 311.197 209.097C310.162 209.644 309.644 210.332 309.644 211.162C309.644 211.602 309.825 211.929 310.186 212.144C310.547 212.349 311.168 212.451 312.046 212.451H314.888C316.627 212.451 317.96 212.817 318.887 213.55C319.825 214.282 320.294 215.347 320.294 216.743C320.294 218.521 319.581 219.873 318.155 220.801C316.729 221.738 314.649 222.207 311.915 222.207C309.815 222.207 308.194 221.816 307.051 221.035C305.919 220.254 305.352 219.15 305.352 217.725C305.352 216.748 305.665 215.903 306.29 215.19C306.915 214.478 307.794 213.994 308.926 213.74C308.516 213.555 308.17 213.267 307.886 212.876C307.613 212.485 307.476 212.031 307.476 211.514C307.476 210.928 307.632 210.415 307.945 209.976C308.257 209.536 308.751 209.111 309.424 208.701C308.594 208.359 307.916 207.778 307.388 206.958C306.871 206.138 306.612 205.2 306.612 204.146C306.612 202.388 307.139 201.035 308.194 200.088C309.249 199.131 310.743 198.652 312.676 198.652C313.516 198.652 314.273 198.75 314.947 198.945H320.499ZM307.696 217.695C307.696 218.564 308.062 219.224 308.795 219.673C309.527 220.122 310.577 220.347 311.944 220.347C313.985 220.347 315.494 220.039 316.47 219.424C317.457 218.818 317.95 217.993 317.95 216.948C317.95 216.079 317.681 215.474 317.144 215.132C316.607 214.8 315.596 214.634 314.112 214.634H311.197C310.093 214.634 309.234 214.897 308.619 215.425C308.004 215.952 307.696 216.709 307.696 217.695ZM309.014 204.087C309.014 205.21 309.332 206.06 309.966 206.636C310.601 207.212 311.485 207.5 312.618 207.5C314.991 207.5 316.177 206.348 316.177 204.043C316.177 201.631 314.976 200.425 312.574 200.425C311.431 200.425 310.552 200.732 309.937 201.348C309.322 201.963 309.014 202.876 309.014 204.087Z" fill="black"/>
</svg>
